<svg id="visual" viewBox="0 0 900 600" width="900" height="600" xmlns="http://www.w3.org/2000/svg" xmlns:xlink="http://www.w3.org/1999/xlink" version="1.1"><rect x="0" y="0" width="900" height="600" fill="#140b0b"></rect><path d="M0 377L129 367L257 406L386 378L514 427L643 352L771 399L900 367L900 601L771 601L643 601L514 601L386 601L257 601L129 601L0 601Z" fill="#f5730a"></path><path d="M0 417L129 434L257 429L386 421L514 397L643 446L771 452L900 417L900 601L771 601L643 601L514 601L386 601L257 601L129 601L0 601Z" fill="#e3630a"></path><path d="M0 424L129 427L257 456L386 485L514 441L643 454L771 462L900 480L900 601L771 601L643 601L514 601L386 601L257 601L129 601L0 601Z" fill="#d15308"></path><path d="M0 490L129 472L257 479L386 454L514 473L643 492L771 504L900 452L900 601L771 601L643 601L514 601L386 601L257 601L129 601L0 601Z" fill="#be4407"></path><path d="M0 483L129 486L257 494L386 524L514 509L643 495L771 517L900 490L900 601L771 601L643 601L514 601L386 601L257 601L129 601L0 601Z" fill="#ac3505"></path><path d="M0 528L129 528L257 534L386 548L514 533L643 555L771 555L900 540L900 601L771 601L643 601L514 601L386 601L257 601L129 601L0 601Z" fill="#992503"></path><path d="M0 578L129 563L257 573L386 570L514 575L643 550L771 557L900 550L900 601L771 601L643 601L514 601L386 601L257 601L129 601L0 601Z" fill="#871400"></path></svg>